<svg width="116" height="58" fill="none" xmlns="http://www.w3.org/2000/svg" class="icon"><path d="M115.206 0H48.742v2.563h66.464V0zm0 52.867H48.742v2.563h66.464v-2.563zm-52.042-40.4c0-4.648-3.431-6.038-7.471-6.038h-6.95v18.68h4.951v-6.3h1.781l3.215 6.3h5.517l-4.04-7.255c1.781-1 2.997-2.737 2.997-5.387zm-9.47-2.128h1.651c1.955 0 2.998.521 2.998 2.128 0 1.608-1.043 2.476-2.998 2.476h-1.65V10.34zm17.982 7.298h6.603V13.51h-6.603v-2.954h7.732v-4.17H66.724v18.723h12.988v-4.127h-8.036v-3.345zm12.558 7.472h4.952v-6.82h6.69v-4.17h-6.69v-3.563h7.82v-4.17H84.233v18.723zm-30.54 5.169h-4.952V49h12.902v-4.17h-7.95V30.277zM74.76 37.75h-6.603v4.17h6.603v2.91h-7.776V49h12.728V30.279H66.724v4.127h8.036v3.345zm17.553 7.341c-2.52 0-4.3-1.954-4.3-5.473 0-3.389 1.78-5.43 4.083-5.43 1.26 0 2.172.478 3.04 1.216l2.694-3.04c-1.303-1.26-3.345-2.433-5.734-2.433-5.04 0-9.123 3.562-9.123 9.86 0 6.386 4.214 9.558 8.862 9.558 2.52 0 4.692-.913 6.255-2.78l-2.693-2.998c-.825.869-1.868 1.52-3.084 1.52zm7.21-14.813v4.127h5.387V49h4.952V34.405h5.343v-4.127H99.523zm14.249-14.553l-9.557-9.557-3.258 3.258 6.299 6.3-6.299 6.342 3.258 3.258 9.557-9.6zm-95.697.956h-2.563v7.298h2.563v-7.298zm5.082 0h-2.563v19.635h2.563V16.681zM43.658 0h-7.69v2.563h7.69V0zM7.818 6.386H.128v2.563h7.69V6.386zm-2.563 5.169v2.563H38.53v-2.563H5.255zM9.338 0H.128v2.563h7.777l7.602 6.43h12.771V6.385H16.897L9.338 0z" fill="currentColor"/><path d="M35.97 8.992h7.644V6.386h-6.212L29.8 0H15.465v2.563h12.859l7.645 6.43zm6.862 44.44c-.999.608-2.259 1.13-3.649 1.13-1.39 0-2.65-.478-3.649-1.13a6.837 6.837 0 01-1.303-1l-.825-.781-.826.782c-.434.39-1.78 1.564-3.605 1.955h-.087c-.13.043-.217.043-.348.087-.087 0-.173 0-.217.043-.087 0-.13 0-.217.043h-.868c-.088 0-.175 0-.261-.043h-.13a7.615 7.615 0 01-3.172-1.26c-.043-.043-.087-.043-.087-.087-.043 0-.043-.043-.087-.043a5.174 5.174 0 01-.825-.695l-.825-.782-.826.782c-.521.478-2.432 2.128-4.952 2.128-1.998 0-3.866-1.086-4.952-2.128l-.826-.782-.825.782c-.521.478-2.433 2.128-4.952 2.128h-.435c-.086 0-.173 0-.26-.043h-.13C2.258 54.301.955 53.606 0 52.868v2.909c.26.13.521.304.782.434a9.466 9.466 0 003.215.825h.477c1.26 0 2.433-.304 3.389-.694a12.366 12.366 0 002.346-1.39c1.129.868 3.214 2.084 5.734 2.084 2.563 0 4.604-1.216 5.777-2.085.782.565 1.955 1.304 3.389 1.738.738.217 1.52.348 2.345.348h.478a10.07 10.07 0 001.651-.261c.521-.13 1.043-.348 1.52-.565a10.95 10.95 0 002.085-1.26c.522.391 1.26.87 2.13 1.26 0 0 .043 0 .043.044.13.043.217.087.347.13h.044a8.09 8.09 0 003.17.651h.044c1 0 1.955-.173 2.78-.477l.391-.13c.044 0 .044-.044.087-.044.087-.044.217-.087.304-.13.044 0 .044 0 .087-.044.304-.13.565-.26.825-.39v-2.868c-.043.087-.304.304-.608.478zm0-6.386c-.999.608-2.259 1.13-3.649 1.13-1.39 0-2.65-.479-3.649-1.13a6.837 6.837 0 01-1.303-1l-.825-.781-.826.782c-.434.39-1.78 1.563-3.605 1.954h-.087c-.13.044-.217.044-.348.087-.087 0-.173 0-.217.044-.087 0-.13 0-.217.043h-.868c-.088 0-.175 0-.261-.043h-.13a7.613 7.613 0 01-3.172-1.26c-.043-.044-.087-.044-.087-.087-.043 0-.043-.043-.087-.043-.39-.261-.651-.522-.825-.695l-.825-.782-.826.782c-.521.477-2.432 2.128-4.952 2.128-1.998 0-3.866-1.086-4.952-2.128l-.826-.782-.825.782c-.521.477-2.433 2.128-4.952 2.128h-.435c-.086 0-.173 0-.26-.043h-.13C2.258 47.914.955 47.219 0 46.48v2.911c.26.13.521.304.782.434a9.464 9.464 0 003.215.825h.477c1.26 0 2.433-.304 3.389-.695a12.366 12.366 0 002.346-1.39c1.129.869 3.214 2.085 5.734 2.085 2.563 0 4.604-1.216 5.777-2.085.782.565 1.955 1.303 3.389 1.738.738.217 1.52.347 2.345.347h.478a10.07 10.07 0 001.651-.26c.521-.13 1.043-.348 1.52-.565a10.95 10.95 0 002.085-1.26c.522.391 1.26.869 2.13 1.26 0 0 .043 0 .043.043.13.044.217.087.347.13h.044a8.09 8.09 0 003.17.652h.044c1 0 1.955-.174 2.78-.478l.391-.13c.044 0 .044-.043.087-.043.087-.044.217-.087.304-.13.044 0 .044 0 .087-.044.304-.13.565-.26.825-.391v-2.867c-.043.087-.304.304-.608.478zm-32.447-4.909c1.13.869 3.214 2.085 5.734 2.085 2.563 0 4.605-1.216 5.777-2.085.782.565 1.955 1.303 3.389 1.738a8.28 8.28 0 002.346.347h.477a10.05 10.05 0 001.651-.26c.521-.13 1.043-.348 1.52-.565a10.952 10.952 0 002.086-1.26c.521.39 1.26.869 2.128 1.26 0 0 .044 0 .044.043.13.044.217.087.347.13h.044a8.876 8.876 0 002.563.609v-2.433c-1.13-.13-2.172-.565-2.998-1.086a6.837 6.837 0 01-1.303-1l-.825-.781-.826.782c-.434.39-1.78 1.564-3.605 1.955h-.087c-.13.043-.217.043-.348.087-.086 0-.173 0-.217.043-.087 0-.13 0-.217.043h-.868c-.088 0-.175 0-.261-.043h-.13a7.613 7.613 0 01-3.172-1.26c-.043-.043-.087-.043-.087-.087-.043 0-.043-.043-.087-.043-.39-.26-.651-.521-.825-.695l-.826-.782-.825.782c-.521.478-2.433 2.128-4.952 2.128-1.998 0-3.866-1.086-4.952-2.128l-.826-.782-.825.782c-.478.434-2.129 1.868-4.3 2.085v2.433a9.002 9.002 0 002.78-.695 9.152 9.152 0 002.476-1.347zm20.459-25.456v19.635h2.563V30.54c1.52-.218 2.693-.87 3.475-1.955 1.911-2.65.782-6.777.739-6.95l-.174-.652-.652.174c-.13.043-1.824.52-3.345 1.607V16.68h-2.606zm2.563 9.08c.434-.956 1.607-1.521 2.259-1.782.13.652.26 2.042-.391 2.91-.348.479-.956.783-1.694.826-.044-.13-.087-.217-.13-.348-.218-.564-.218-1.085-.044-1.563v-.044zm-5.125-9.08h-2.563v19.635h2.563V16.681zM17.114 27.324l-.174-.652-.651.174c-.13.044-1.781.478-3.345 1.607V16.681H10.38v1.781c-1.52-1.086-3.215-1.564-3.345-1.607l-.652-.174-.173.652c-.044.174-1.173 4.3.738 6.95.782 1.086 1.955 1.738 3.475 1.955v10.078h1.565c.348 0 .695-.043 1.043-.087 1.52-.217 2.65-.868 3.475-1.954 1.824-2.65.651-6.777.608-6.951zm-6.733-4.257c-.044.13-.087.217-.13.347-.782-.087-1.347-.347-1.695-.825-.651-.869-.52-2.215-.39-2.91.608.26 1.824.825 2.258 1.78 0 0 0 .044.044.044.13.434.087 1-.087 1.564zm4.43 9.47c-.347.478-.955.782-1.693.825-.044-.13-.087-.217-.13-.347-.218-.565-.218-1.086-.044-1.564 0 0 0-.044.043-.044.435-.955 1.608-1.52 2.26-1.78.043.695.173 2.041-.435 2.91z" fill="currentColor"/></svg>